# xmcd
#
# Track frame offsets:
#	210
#	22627
#	39345
#	57535
#	77555
#	96837
#	115550
#	135940
#	153817
#	175717
#
# Disc length: 2621 seconds
#
# Revision: 2
# Processed by: cddbd v1.4PL0 Copyright (c) Steve Scherf et al.
# Submitted via: MusicManager 7.0.0.0 
#
DISCID=620a3b0a
DTITLE=Starleana - Starleana
DYEAR=1900
DGENRE=
TTITLE0=I'll Take You There
TTITLE1=Supernatural
TTITLE2=Stronger and Better
TTITLE3=Work Me Over
TTITLE4=Life After Love
TTITLE5=Let's Face It
TTITLE6=Welcome to My House
TTITLE7=Unchain Your Heart
TTITLE8=Guilty
TTITLE9=Crazy for Loving You
EXTD=
EXTT0=
EXTT1=
EXTT2=
EXTT3=
EXTT4=
EXTT5=
EXTT6=
EXTT7=
EXTT8=
EXTT9=
PLAYORDER=
